<svg preserveAspectRatio="none" overflow="visible" style="display: block;" width="18" height="18" viewBox="0 0 18 18" fill="none" xmlns="http://www.w3.org/2000/svg">
<g id="ph/graduation-cap">
<path id="Vector" d="M17.7019 6.25359L9.26438 1.75359C9.18299 1.71026 9.0922 1.68759 9 1.68759C8.9078 1.68759 8.81701 1.71026 8.73563 1.75359L0.298125 6.25359C0.208128 6.30156 0.132863 6.37308 0.0803812 6.46052C0.0278995 6.54796 0.000175723 6.64802 0.000175723 6.75C0.000175723 6.85198 0.0278995 6.95204 0.0803812 7.03948C0.132863 7.12692 0.208128 7.19844 0.298125 7.24641L2.25 8.28773V11.6923C2.24942 11.9686 2.3511 12.2353 2.53547 12.4411C3.45656 13.467 5.52023 15.1875 9 15.1875C10.1538 15.197 11.299 14.9881 12.375 14.5716V16.875C12.375 17.0242 12.4343 17.1673 12.5398 17.2727C12.6452 17.3782 12.7883 17.4375 12.9375 17.4375C13.0867 17.4375 13.2298 17.3782 13.3352 17.2727C13.4407 17.1673 13.5 17.0242 13.5 16.875V14.028C14.2335 13.6046 14.8963 13.0692 15.4645 12.4411C15.6489 12.2353 15.7506 11.9686 15.75 11.6923V8.28773L17.7019 7.24641C17.7919 7.19844 17.8671 7.12692 17.9196 7.03948C17.9721 6.95204 17.9998 6.85198 17.9998 6.75C17.9998 6.64802 17.9721 6.54796 17.9196 6.46052C17.8671 6.37308 17.7919 6.30156 17.7019 6.25359ZM9 14.0625C5.95758 14.0625 4.16813 12.5761 3.375 11.6923V8.8875L8.73563 11.7464C8.81701 11.7897 8.9078 11.8124 9 11.8124C9.0922 11.8124 9.18299 11.7897 9.26438 11.7464L12.375 10.0877V13.346C11.4891 13.7595 10.3725 14.0625 9 14.0625ZM14.625 11.6895C14.2878 12.0636 13.9106 12.3996 13.5 12.6914V9.48727L14.625 8.8875V11.6895ZM13.2188 8.36297L13.2033 8.35383L9.26578 6.25359C9.13441 6.18649 8.98194 6.17368 8.84122 6.21793C8.70049 6.26217 8.58278 6.35992 8.51344 6.49012C8.4441 6.62032 8.42867 6.77255 8.4705 6.91401C8.51232 7.05547 8.60804 7.17484 8.73703 7.24641L12.0234 9L9 10.6123L1.75781 6.75L9 2.88773L16.2422 6.75L13.2188 8.36297Z" fill="#3D3D3D"/>
</g>
</svg>
