<svg preserveAspectRatio="none" overflow="visible" style="display: block;" width="25.3646" height="25.3646" viewBox="0 0 25.3646 25.3646" fill="none" xmlns="http://www.w3.org/2000/svg">
<g id="Model icons">
<g id="Ellipse 29" filter="url(#filter0_d_0_55)">
<circle cx="12.6823" cy="12.6823" r="7.60938" fill="#D9D9D9"/>
<circle cx="12.6823" cy="12.6823" r="8.30114" stroke="white" stroke-width="1.38352"/>
</g>
<g id="Icon">
<rect x="5.07292" y="5.07292" width="15.2188" height="15.2188" rx="7.60938" fill="white"/>
<path id="Vector" d="M17.4018 11.67C17.655 10.91 17.5678 10.0775 17.1629 9.38623C16.554 8.32597 15.3298 7.78049 14.1342 8.03719C13.6023 7.438 12.8382 7.09725 12.037 7.10214C10.8149 7.09935 9.73061 7.88617 9.35463 9.04897C8.56955 9.20975 7.89189 9.70117 7.49534 10.3977C6.88185 11.4551 7.02171 12.7881 7.84132 13.6949C7.58811 14.4549 7.67531 15.2874 8.08023 15.9787C8.68918 17.039 9.91337 17.5844 11.109 17.3277C11.6405 17.9269 12.405 18.2677 13.2061 18.2624C14.4289 18.2656 15.5136 17.4781 15.8895 16.3142C16.6746 16.1534 17.3523 15.662 17.7488 14.9655C18.3616 13.908 18.2214 12.5761 17.4022 11.6693L17.4018 11.67ZM13.2068 17.5332C12.7175 17.5339 12.2435 17.3626 11.8679 17.0491C11.885 17.04 11.9146 17.0236 11.9338 17.0118L14.1562 15.7283C14.2699 15.6638 14.3396 15.5427 14.3389 15.4119V12.2789L15.2782 12.8213C15.2883 12.8262 15.2949 12.8359 15.2963 12.8471V15.4416C15.2949 16.5953 14.3605 17.5307 13.2068 17.5332ZM8.71325 15.6139C8.46806 15.1905 8.37982 14.6942 8.46388 14.2125C8.48027 14.2223 8.50922 14.2401 8.52979 14.2519L10.7522 15.5354C10.8648 15.6013 11.0043 15.6013 11.1173 15.5354L13.8304 13.9687V15.0534C13.8311 15.0646 13.8259 15.0754 13.8172 15.0824L11.5707 16.3794C10.5701 16.9556 9.2922 16.6131 8.71359 15.6139H8.71325ZM8.12836 10.7628C8.3725 10.3387 8.75789 10.0144 9.21687 9.84591C9.21687 9.86509 9.21582 9.89893 9.21582 9.92264V12.4899C9.21513 12.6204 9.28488 12.7414 9.39823 12.8059L12.1113 14.3723L11.1721 14.9146C11.1627 14.9209 11.1508 14.9219 11.1403 14.9174L8.89356 13.6193C7.89503 13.041 7.55254 11.7635 8.12801 10.7632L8.12836 10.7628ZM15.8453 12.5586L13.1322 10.992L14.0714 10.45C14.0808 10.4437 14.0927 10.4427 14.1031 10.4472L16.3499 11.7443C17.3502 12.3222 17.693 13.6018 17.1151 14.6021C16.8706 15.0255 16.4856 15.3499 16.027 15.5187V12.8746C16.028 12.7442 15.9586 12.6235 15.8456 12.5586H15.8453ZM16.78 11.1517C16.7636 11.1416 16.7346 11.1242 16.714 11.1123L14.4917 9.82882C14.379 9.7629 14.2395 9.7629 14.1265 9.82882L11.4134 11.3955V10.3108C11.4127 10.2997 11.418 10.2889 11.4267 10.2819L13.6731 8.98584C14.6737 8.40863 15.953 8.75217 16.5299 9.75314C16.7737 10.1758 16.8619 10.6708 16.7793 11.1517H16.78ZM10.9028 13.0849L9.96324 12.5426C9.95312 12.5377 9.9465 12.528 9.9451 12.5168V9.92229C9.9458 8.76717 10.8829 7.83107 12.0381 7.83176C12.5267 7.83176 12.9996 8.00336 13.3753 8.31586C13.3582 8.32492 13.3289 8.34132 13.3093 8.35317L11.087 9.63665C10.9733 9.70117 10.9035 9.82185 10.9042 9.95264L10.9028 13.0842V13.0849ZM11.4131 11.9849L12.6216 11.287L13.8301 11.9846V13.38L12.6216 14.0775L11.4131 13.38V11.9849Z" fill="black"/>
</g>
</g>
<defs>
<filter id="filter0_d_0_55" x="1.19209e-07" y="1.19209e-07" width="25.3646" height="25.3646" filterUnits="userSpaceOnUse" color-interpolation-filters="sRGB">
<feFlood flood-opacity="0" result="BackgroundImageFix"/>
<feColorMatrix in="SourceAlpha" type="matrix" values="0 0 0 0 0 0 0 0 0 0 0 0 0 0 0 0 0 0 127 0" result="hardAlpha"/>
<feOffset/>
<feGaussianBlur stdDeviation="1.8447"/>
<feComposite in2="hardAlpha" operator="out"/>
<feColorMatrix type="matrix" values="0 0 0 0 0 0 0 0 0 0 0 0 0 0 0 0 0 0 0.08 0"/>
<feBlend mode="normal" in2="BackgroundImageFix" result="effect1_dropShadow_0_55"/>
<feBlend mode="normal" in="SourceGraphic" in2="effect1_dropShadow_0_55" result="shape"/>
</filter>
</defs>
</svg>
